# xmcd
#
# Track frame offsets:
#	150
#	18627
#	36785
#	58530
#	79270
#	97155
#	115845
#	142405
#	168170
#	188602
#	211730
#	232900
#	257870
#	274460
#	287612
#	306530
#
# Disc length: 4350 seconds
#
# Revision: 3
# Processed by: cddbd v1.5.2PL0 Copyright (c) Steve Scherf et al.
# Submitted via: audiograbber 1.83.01
#
DISCID=ed10fc10
DTITLE=Jennifer Holliday - The Best Of
DYEAR=1991
DGENRE=
TTITLE0=Jennifer Holliday - And I am telling you I'm not going
TTITLE1=Jennifer Holliday - I am changing
TTITLE2=Jennifer Holliday - Just let me wait
TTITLE3=Jennifer Holliday - I am love
TTITLE4=Jennifer Holliday - No frills love
TTITLE5=Jennifer Holliday - This game of love (I'm never coming down)
TTITLE6=Jennifer Holliday - Say you love me
TTITLE7=Jennifer Holliday - Come Sunday
TTITLE8=Jennifer Holliday - Heart on the line
TTITLE9=Jennifer Holliday - Hard times for lovers
TTITLE10=Jennifer Holliday - Read it in my eyes
TTITLE11=Jennifer Holliday - I'm on your side
TTITLE12=Jennifer Holliday - No frills love (Love to infinity sessions '96) (Pr
TTITLE12=eviously unreleased)
TTITLE13=Jennifer Holliday - Love me (Love to infinity sessions '96) (Previousl
TTITLE13=y unreleased)
TTITLE14=Jennifer Holliday - Early warning (Love to infinity sessions '96) (Pre
TTITLE14=viously unreleased)
TTITLE15=Jennifer Holliday - Someday (Previously unreleased)
EXTD=
EXTT0=
EXTT1=
EXTT2=
EXTT3=
EXTT4=
EXTT5=
EXTT6=
EXTT7=
EXTT8=
EXTT9=
EXTT10=
EXTT11=
EXTT12=
EXTT13=
EXTT14=
EXTT15=
PLAYORDER=
